{
  "asset": {"version": "2.0", "generator": "Scrapbot test fixture"},
  "scene": 0,
  "scenes": [{"name": "Fixture Scene", "nodes": [0]}],
  "nodes": [{"name": "Triangle Node", "mesh": 0, "translation": [1, 2, 3]}],
  "meshes": [{
    "name": "Triangle Mesh",
    "primitives": [{"attributes": {"POSITION": 0}, "indices": 1, "material": 0}]
  }],
  "materials": [{
    "name": "Coral",
    "pbrMetallicRoughness": {"baseColorFactor": [1.0, 0.25, 0.1, 1.0]},
    "emissiveFactor": [0.1, 0.0, 0.0]
  }],
  "buffers": [{
    "byteLength": 42,
    "uri": "data:application/octet-stream;base64,"
  }],
  "bufferViews": [
    {"buffer": 0, "byteOffset": 0, "byteLength": 36, "target": 34962},
    {"buffer": 0, "byteOffset": 36, "byteLength": 6, "target": 34963}
  ],
  "accessors": [
    {
      "bufferView": 0,
      "componentType": 5126,
      "count": 3,
      "type": "VEC3",
      "min": [-1, -1, 0],
      "max": [1, 1, 0]
    },
    {"bufferView": 1, "componentType": 5123, "count": 3, "type": "SCALAR"}
  ]
}
